<?xml version="1.0" encoding="UTF-8" standalone="no"?>
<!-- Uploaded to: SVG Repo, www.svgrepo.com, Generator: SVG Repo Mixer Tools -->

<svg
   fill="#000000"
   width="900"
   height="900"
   viewBox="0 0 36 36"
   version="1.1"
   id="svg1"
   xmlns="http://www.w3.org/2000/svg"
   xmlns:svg="http://www.w3.org/2000/svg"
   xmlns:rdf="http://www.w3.org/1999/02/22-rdf-syntax-ns#"
   xmlns:cc="http://creativecommons.org/ns#"
   xmlns:dc="http://purl.org/dc/elements/1.1/">
  <defs
     id="defs1" />
  <title
     id="title1">shark</title>
  <path
     d="M 18.033615,1.4513338 C 10.403464,6.2983278 6.2910007,18.59117 6.2910007,34.205527 H 29.708999 c 0,-15.613237 -4.045235,-27.9071992 -11.675384,-32.7541932 z m -7.467688,15.9532972 1.284018,1.073376 -0.440332,-2.462712 c 0.5154,-0.767498 1.064412,-1.447601 1.641435,-2.029105 l 1.345642,1.913699 0.275626,-3.236931 c 0.657695,-0.416801 1.342279,-0.713715 2.045911,-0.877298 l 1.281776,2.534419 1.281775,-2.534419 c 0.69915,0.162462 1.378133,0.456016 2.032467,0.869455 l 0.28907,3.393792 1.406144,-2.001093 c 0.554614,0.568059 1.082339,1.226874 1.579811,1.96636 l -0.43921,2.462712 1.284016,-1.073375 c 1.706421,3.099118 2.943378,7.246962 3.466621,11.948299 -0.06683,3.889694 -21.7515603,2.320881 -21.8036319,-0.0011 0.5221219,-4.700217 1.7590797,-8.849181 3.4666199,-11.947179 z"
     id="path2"
     style="display:inline;fill:#1c4878;fill-opacity:1;stroke-width:1.12043" />
  <path
     d="M 18.030001,4.0195273 C 11.220001,8.3455277 6.2910007,20.269527 6.2910007,34.205527 H 29.708999 c 0,-13.935 -4.869,-25.8599993 -11.678998,-30.1859997 z m -6.664999,15.1909997 1.146,0.958 -0.393,-2.198 c 0.46,-0.685 0.949999,-1.292 1.465,-1.811 l 1.200997,1.708 0.246,-2.889 c 0.587,-0.372 1.198,-0.637 1.826,-0.783 l 1.144,2.262 1.144,-2.262 c 0.624,0.145 1.23,0.407 1.814,0.776 l 0.258,3.029 1.255,-1.786 c 0.495,0.507 0.966,1.095 1.41,1.755 l -0.392,2.198 1.146,-0.958 c 1.523,2.766 2.627,6.468 3.094,10.664 -0.626,-2.009 -1.659,-3.774 -2.975,-5.146 l 0.25,-2.235 -1.6,1.042 c -0.381,-0.283 -0.777,-0.537 -1.188,-0.759 l -0.208,-2.556 -1.641,1.801 c -0.456,-0.13 -0.924,-0.222 -1.401,-0.276 l -0.968,-2.074 -0.968,2.074 c -0.508,0.057 -1.006,0.159 -1.49,0.302 l -1.549999,-1.701 -0.197,2.425 c -0.415,0.224 -0.815,0.479 -1.199,0.765 l -1.6,-1.042 0.25,2.234 c -1.3159993,1.371 -2.3489993,3.136 -2.9749993,5.145 0.466,-4.195 1.57,-7.898 3.0939993,-10.663 z"
     id="path1"
     style="display:inline;fill:#3178c6;fill-opacity:1" />
  <metadata
     id="metadata1">
    <rdf:RDF>
      <cc:Work
         rdf:about="">
        <dc:title>shark</dc:title>
      </cc:Work>
    </rdf:RDF>
  </metadata>
</svg>
